<?xml version="1.0" encoding="utf-8"?>
<!-- Generator: Adobe Illustrator 16.0.0, SVG Export Plug-In . SVG Version: 6.00 Build 0)  -->
<!DOCTYPE svg PUBLIC "-//W3C//DTD SVG 1.1//EN" "http://www.w3.org/Graphics/SVG/1.1/DTD/svg11.dtd">
<svg version="1.1" id="Capa_1" xmlns="http://www.w3.org/2000/svg" xmlns:xlink="http://www.w3.org/1999/xlink" x="0px" y="0px"
	 width="500.432px" height="500.138px" viewBox="0 0 500.432 500.138" enable-background="new 0 0 500.432 500.138"
	 xml:space="preserve">
<g>
	<path fill-rule="evenodd" clip-rule="evenodd" fill="#F3D031" d="M0,439.16C0,313.013,0,186.865,0,60.717
		c0.383-2.612,0.701-5.236,1.158-7.835C5.495,28.211,25.846,6.953,50.286,1.46c3.644-0.819,7.337-1.231,11.02-1.754
		c126.147,0,252.296,0,378.443,0c0.888,0.368,1.84,0.235,2.76,0.352c17.981,2.268,32.735,10.405,44.046,24.555
		c8.473,10.599,13.147,22.745,13.955,36.332c-0.015,1.079-0.043,2.157-0.043,3.236c-0.002,37.43-0.003,74.86,0.008,112.29
		c0,0.717-0.207,1.482,0.285,2.142c0,86.555,0,173.11,0,259.665c-0.217,1.942-0.357,3.897-0.662,5.826
		c-3.134,19.809-13.111,35.238-29.911,46.147c-9.299,6.038-19.569,9.36-30.679,9.957c-1.079-0.012-2.158-0.034-3.237-0.034
		c-24.704-0.002-49.408-0.003-74.113,0.008c-0.666,0.001-1.384-0.209-1.987,0.285c-99.425,0-198.851,0-298.275,0
		c-2.8-0.462-5.635-0.633-8.436-1.13c-24.936-4.421-45.947-24.397-51.698-49.169C0.917,446.533,0.52,442.84,0,439.16z
		 M410.753,143.592c0.076-0.921,0.138-1.7,0.206-2.479c0.539-6.245,0.334-12.457-0.853-18.621
		c-2.895-15.051-10.15-27.667-21.185-38.234c-21.203-20.305-53.179-24.618-78.944-10.519c-1.095,0.599-1.64,0.442-2.46-0.386
		c-9.162-9.246-18.36-18.455-27.56-27.664c-10.9-10.912-28.396-10.942-39.337-0.072c-6.689,6.646-13.373,13.299-20.051,19.958
		c-10.887,10.855-21.768,21.717-32.649,32.577c-10.917,10.895-21.83,21.793-32.749,32.687c-21.803,21.751-43.61,43.497-65.411,65.25
		c-14.642,14.609-29.278,29.222-43.909,43.841c-11.303,11.293-11.292,28.688,0.001,39.997c9.163,9.175,18.3,18.376,27.5,27.515
		c0.926,0.92,0.743,1.323-0.068,2.129c-7.326,7.263-14.607,14.569-21.898,21.865c-0.381,0.382-0.762,0.769-1.098,1.188
		c-3.86,4.825-3.378,11.265,1.208,15.852c25.387,25.394,50.772,50.788,76.192,76.148c0.932,0.93,0.913,1.367-0.009,2.265
		c-2.637,2.563-5.366,5.053-7.489,8.099c-7.427,10.655-2.956,23.23,9.394,26.477c3.277,0.861,6.624,0.808,9.949,0.819
		c21.563,0.074,43.125,0.089,64.687,0.112c21.466,0.023,42.931,0.037,64.396,0.049c35.17,0.02,70.34,0.028,105.51,0.054
		c7.808,0.007,15.616,0.087,23.425,0.098c12.624,0.018,25.248,0.039,37.871-0.005c13.328-0.046,24.817-9.832,27.067-23.003
		c0.84-4.923,0.438-9.903,0.454-14.849c0.103-31.633,0.072-63.267,0.093-94.899c0.008-11.788,0.034-23.577,0.047-35.365
		c0.037-33.302,0.067-66.603,0.109-99.904c0.014-10.167,0.07-20.333,0.086-30.5c0.016-9.628,0.026-19.255-0.01-28.883
		c-0.012-3.208-0.521-6.351-1.75-9.346c-2.975-7.251-9.56-11.111-17.289-9.979c-4.587,0.672-8.354,3.044-11.592,6.257
		c-6.833,6.782-13.621,13.61-20.437,20.41C411.835,142.896,411.556,143.391,410.753,143.592z"/>
	<path fill-rule="evenodd" clip-rule="evenodd" fill="#F6D967" d="M500.51,60.944c0.093-0.011,0.176,0.011,0.25,0.067
		c0,39.2,0,78.4,0,117.601c-0.492-0.66-0.285-1.425-0.285-2.142c-0.011-37.43-0.01-74.859-0.008-112.29
		C500.467,63.102,500.495,62.023,500.51,60.944z"/>
	<path fill-rule="evenodd" clip-rule="evenodd" fill="#F6D967" d="M439.508,500.207c-0.029,0.084-0.047,0.17-0.054,0.259
		c-26.428,0-52.856,0-79.284,0c0.604-0.494,1.321-0.284,1.987-0.285c24.705-0.011,49.409-0.01,74.113-0.008
		C437.35,500.173,438.429,500.195,439.508,500.207z"/>
	<path fill-rule="evenodd" clip-rule="evenodd" fill="#FEFDFD" d="M410.753,143.592c0.803-0.202,1.082-0.696,1.447-1.061
		c6.815-6.8,13.604-13.628,20.437-20.41c3.238-3.213,7.005-5.585,11.592-6.257c7.729-1.132,14.314,2.728,17.289,9.979
		c1.229,2.995,1.738,6.137,1.75,9.346c0.036,9.627,0.025,19.255,0.01,28.883c-0.016,10.167-0.072,20.333-0.086,30.5
		c-0.042,33.301-0.072,66.603-0.109,99.904c-0.013,11.788-0.039,23.577-0.047,35.365c-0.021,31.633,0.01,63.267-0.093,94.899
		c-0.017,4.945,0.386,9.926-0.454,14.849c-2.25,13.171-13.739,22.957-27.067,23.003c-12.623,0.044-25.247,0.022-37.871,0.005
		c-7.809-0.011-15.617-0.091-23.425-0.098c-35.17-0.025-70.34-0.034-105.51-0.054c-21.465-0.012-42.93-0.025-64.396-0.049
		c-21.562-0.023-43.124-0.038-64.687-0.112c-3.325-0.012-6.672,0.042-9.949-0.819c-12.35-3.246-16.82-15.821-9.394-26.477
		c2.123-3.046,4.853-5.535,7.489-8.099c0.922-0.897,0.94-1.335,0.009-2.265c-25.42-25.36-50.806-50.755-76.192-76.148
		c-4.586-4.587-5.068-11.026-1.208-15.852c0.336-0.42,0.717-0.807,1.098-1.188c7.291-7.296,14.572-14.603,21.898-21.865
		c0.812-0.806,0.994-1.209,0.068-2.129c-9.2-9.139-18.337-18.34-27.5-27.515c-11.293-11.308-11.304-28.704-0.001-39.997
		c14.631-14.619,29.268-29.231,43.909-43.841c21.801-21.753,43.608-43.499,65.411-65.25c10.919-10.894,21.832-21.792,32.749-32.687
		c10.882-10.86,21.763-21.722,32.649-32.577c6.678-6.659,13.361-13.312,20.051-19.958c10.941-10.87,28.437-10.839,39.337,0.072
		c9.199,9.209,18.397,18.418,27.56,27.664c0.82,0.828,1.365,0.984,2.46,0.386c25.766-14.099,57.741-9.786,78.944,10.519
		c11.034,10.567,18.29,23.183,21.185,38.234c1.187,6.164,1.392,12.376,0.853,18.621
		C410.891,141.892,410.829,142.671,410.753,143.592z M169.398,353.927c-3.759,7.049-8.339,13.09-13.813,18.446
		c-0.672,0.657-0.273,0.937,0.157,1.366c3.966,3.955,7.923,7.917,11.882,11.878c5.442,5.445,5.454,12.095,0.029,17.52
		c-11.809,11.81-23.621,23.615-35.424,35.431c-1.601,1.603-3.126,3.271-3.84,5.498c-0.794,2.479,0.051,4.509,2.391,5.622
		c1.625,0.772,3.367,1.014,5.155,1.02c6.236,0.021,12.474,0.074,18.71,0.086c21.661,0.043,43.322,0.081,64.983,0.106
		c21.417,0.025,42.834,0.037,64.251,0.05c31.83,0.019,63.661,0.025,95.492,0.052c18.419,0.016,36.838,0.071,55.258,0.084
		c9.689,0.007,16.736-7.06,16.757-16.711c0.019-8.398,0.088-16.796,0.099-25.194c0.028-21.711,0.039-43.423,0.052-65.134
		c0.019-34.827,0.027-69.654,0.053-104.481c0.006-8.595,0.071-17.189,0.086-25.784c0.042-25.935,0.076-51.869,0.103-77.804
		c0.001-1.67-0.128-3.339-0.617-4.949c-1.121-3.693-3.926-4.854-7.343-3.044c-1.67,0.884-3.022,2.174-4.343,3.498
		c-10.271,10.291-20.535,20.588-30.814,30.872c-1.836,1.837-3.549,3.815-5.817,5.177c-0.313,0.188-0.542,0.561-0.734,0.892
		c-3.287,5.635-7.282,10.71-12.005,15.209c-10.129,9.647-22.048,15.729-35.878,18.003c-5.012,0.824-10.049,1.072-15.116,0.701
		c-0.404-0.03-1.119-0.403-0.857,0.582c0.768,2.889,0.207,5.762-0.145,8.626c-2.38,19.375-10.774,35.707-25.006,49.027
		c-7.894,7.389-16.986,12.775-27.355,15.946c-0.655,0.2-1.278,0.292-0.991,1.347c1.222,4.498-0.111,8.293-3.351,11.527
		c-8.065,8.053-16.117,16.119-24.181,24.174c-3.789,3.785-8.42,4.672-13.376,2.568c-3.387-1.438-6.773-2.871-10.139-4.357
		c-0.745-0.329-1.219-0.256-1.8,0.331c-4.562,4.607-9.144,9.196-13.758,13.751c-0.642,0.633-0.696,1.128-0.341,1.916
		c1.511,3.352,2.963,6.73,4.427,10.104c2.054,4.732,1.172,9.466-2.466,13.138c-2.8,2.826-5.624,5.629-8.438,8.442
		c-5.245,5.245-10.472,10.509-15.74,15.729c-6.043,5.99-15.448,4.181-18.883-3.612c-0.672-1.525-1.28-3.078-1.918-4.619
		C173.033,362.702,171.272,358.45,169.398,353.927z M274.913,141.473c0-0.338,0.032-0.633-0.005-0.918
		c-0.604-4.598-0.641-9.21-0.146-13.809c1.93-17.947,9.876-32.774,23.401-44.641c0.962-0.844,0.764-1.196,0.011-1.946
		c-8.738-8.696-17.448-17.42-26.165-26.139c-6.674-6.677-16.789-6.699-23.465-0.045c-16.906,16.85-33.813,33.699-50.715,50.553
		c-10.816,10.786-21.628,21.575-32.438,32.368c-16.335,16.311-32.662,32.63-49.002,48.936c-20.823,20.78-41.662,41.546-62.483,62.33
		c-6.674,6.663-6.672,16.817-0.033,23.478c9.152,9.184,18.32,18.352,27.435,27.575c0.96,0.971,1.45,1.121,2.472,0.045
		c4.414-4.651,9.378-8.652,14.908-11.913c12.472-7.354,25.648-10.027,39.828-5.892c0.248,0.073,0.559,0.249,0.836-0.129
		c-2.737-6.625-5.495-13.279-8.232-19.941c-2.075-5.051-1.171-9.464,2.703-13.339c6.736-6.739,13.476-13.476,20.213-20.213
		c4.549-4.549,8.648-5.361,14.563-2.91c11.593,4.805,23.189,9.602,34.787,14.394c0.452,0.187,0.885,0.542,1.532,0.391
		c-0.31-0.67-0.576-1.244-0.841-1.818c-7.2-15.64-8.456-31.714-3.281-48.167c7.595-24.151,30.691-44.274,55.727-48.437
		C262.592,140.274,268.789,138.702,274.913,141.473z M340.201,191.042c19.133,0,34.013-6.612,44.697-18.382
		c16.089-17.724,19.462-42.074,8.518-63.588c-11.18-21.977-35.274-35.51-60.586-31.327c-24.082,3.981-43.971,24.754-46.586,49.104
		c-1.523,14.189,1.784,27.25,10.048,38.85C307.813,181.871,323.531,190.515,340.201,191.042z M209.187,209.504
		c-0.078,3.765,0.326,7.469,1.114,11.124c3.227,14.959,11.327,26.828,23.458,35.895c14.099,10.538,29.827,14.03,47.007,9.565
		c11.494-2.987,20.927-9.437,28.837-18.175c10.475-11.57,16.178-25.214,17.513-40.726c0.072-0.843,0.045-1.553-0.661-2.256
		c-11.419-11.364-22.809-22.758-34.183-34.167c-0.646-0.647-0.999-0.768-1.718-0.047c-11.332,11.382-22.69,22.738-34.069,34.072
		c-0.654,0.651-0.622,0.962,0.012,1.59c5.514,5.46,11.006,10.944,16.461,16.463c0.744,0.753,1.127,0.685,1.834-0.035
		c3.993-4.063,8.073-8.042,12.045-12.126c0.893-0.917,1.346-0.833,2.149,0.044c1.523,1.666,3.133,3.26,4.79,4.792
		c0.761,0.703,0.896,1.347,0.581,2.3c-1.324,4.001-3.687,7.326-6.518,10.379c-7.195,7.764-17.531,10.277-27.14,6.389
		c-7.473-3.024-13.082-8.217-16.742-15.4c-2.659-5.218-3.621-10.762-2.408-16.56c1.781-8.511,7.442-13.809,14.874-17.489
		c4.642-2.3,9.691-3.059,14.828-3.307c0.572-0.028,1.418,0.315,1.264-0.963c-1.132-9.352-2.23-18.708-3.256-28.072
		c-0.133-1.216-0.628-1.366-1.636-1.311c-4.124,0.224-8.21,0.7-12.237,1.632c-10.75,2.489-19.886,7.894-27.824,15.446
		C215.848,179.705,209.408,193.214,209.187,209.504z M187.272,367.266c0.249-0.202,0.45-0.338,0.618-0.506
		c7.781-7.776,15.549-15.566,23.356-23.316c0.644-0.639,0.497-1.106,0.204-1.771c-2.387-5.424-4.721-10.871-7.148-16.275
		c-0.444-0.989-0.267-1.541,0.462-2.265c8.151-8.102,16.28-16.225,24.373-24.384c0.767-0.773,1.353-0.802,2.283-0.394
		c5.339,2.342,10.717,4.597,16.052,6.948c1.017,0.448,1.616,0.309,2.398-0.48c7.572-7.639,15.191-15.229,22.796-22.836
		c1.144-1.144,1.145-1.156-0.358-1.777c-36.069-14.928-72.143-29.85-108.2-44.81c-0.932-0.386-1.395-0.128-1.999,0.479
		c-6.583,6.613-13.168,13.224-19.805,19.783c-0.752,0.743-0.697,1.278-0.341,2.136c10.922,26.33,21.819,52.667,32.719,79.006
		C178.872,346.93,183.055,357.06,187.272,367.266z M164.028,330.967c0.094-3.061-0.193-6.078-0.921-9.051
		c-2.196-8.977-7.309-16.096-14.259-21.951c-9.046-7.621-19.381-10.702-31.102-8.157c-9.548,2.074-17.458,7.178-24.311,13.921
		c-11.165,10.987-22.168,22.139-33.274,33.186c-0.819,0.815-0.787,1.214,0.015,2.014c25.302,25.255,50.58,50.531,75.837,75.831
		c0.763,0.765,1.125,0.806,1.905,0.017c7.049-7.117,14.129-14.205,21.253-21.247c0.908-0.898,0.945-1.336,0.01-2.258
		c-6.505-6.411-12.93-12.904-19.416-19.334c-0.728-0.722-0.75-1.112,0.003-1.823c1.997-1.889,3.896-3.882,5.854-5.813
		c4.309-4.249,8.33-8.729,11.522-13.906C161.203,345.813,163.808,338.773,164.028,330.967z"/>
	<path fill-rule="evenodd" clip-rule="evenodd" fill="#CA0488" d="M169.398,353.927c1.874,4.523,3.635,8.775,5.396,13.026
		c0.638,1.541,1.246,3.094,1.918,4.619c3.435,7.793,12.84,9.603,18.883,3.612c5.269-5.221,10.495-10.484,15.74-15.729
		c2.813-2.813,5.638-5.616,8.438-8.442c3.638-3.672,4.52-8.405,2.466-13.138c-1.464-3.373-2.916-6.752-4.427-10.104
		c-0.355-0.788-0.301-1.283,0.341-1.916c4.614-4.555,9.196-9.144,13.758-13.751c0.581-0.587,1.055-0.66,1.8-0.331
		c3.365,1.486,6.752,2.92,10.139,4.357c4.956,2.104,9.587,1.217,13.376-2.568c8.063-8.055,16.115-16.121,24.181-24.174
		c3.239-3.233,4.572-7.029,3.351-11.527c-0.287-1.054,0.336-1.147,0.991-1.347c10.369-3.17,19.462-8.557,27.355-15.946
		c14.231-13.321,22.626-29.652,25.006-49.027c0.352-2.864,0.912-5.737,0.145-8.626c-0.262-0.985,0.453-0.611,0.857-0.582
		c5.067,0.371,10.104,0.124,15.116-0.701c13.83-2.273,25.749-8.356,35.878-18.003c4.723-4.499,8.718-9.574,12.005-15.209
		c0.192-0.331,0.422-0.705,0.734-0.892c2.269-1.361,3.981-3.34,5.817-5.177c10.279-10.284,20.543-20.581,30.814-30.872
		c1.32-1.323,2.673-2.613,4.343-3.498c3.417-1.81,6.222-0.649,7.343,3.044c0.489,1.61,0.618,3.279,0.617,4.949
		c-0.026,25.935-0.061,51.87-0.103,77.804c-0.015,8.595-0.08,17.189-0.086,25.784c-0.025,34.827-0.034,69.654-0.053,104.481
		c-0.013,21.711-0.023,43.423-0.052,65.134c-0.011,8.398-0.08,16.796-0.099,25.194c-0.021,9.651-7.067,16.718-16.757,16.711
		c-18.42-0.013-36.839-0.068-55.258-0.084c-31.831-0.026-63.662-0.033-95.492-0.052c-21.417-0.013-42.834-0.024-64.251-0.05
		c-21.661-0.025-43.322-0.063-64.983-0.106c-6.236-0.012-12.474-0.064-18.71-0.086c-1.788-0.006-3.53-0.247-5.155-1.02
		c-2.34-1.113-3.185-3.144-2.391-5.622c0.714-2.228,2.239-3.896,3.84-5.498c11.803-11.815,23.615-23.621,35.424-35.431
		c5.425-5.425,5.413-12.074-0.029-17.52c-3.959-3.961-7.916-7.923-11.882-11.878c-0.431-0.43-0.829-0.709-0.157-1.366
		C161.06,367.017,165.64,360.976,169.398,353.927z M387.271,312.067c0.514,0.657,0.811,1.032,1.103,1.41
		c1.713,2.222,3.529,4.354,5.696,6.145c2.24,1.851,4.801,2.686,7.684,1.892c2.673-0.737,4.236-2.69,5.315-5.132
		c2.813-6.364,3.983-13.112,4.669-19.968c0.25-2.494,0.366-5.003,0.565-7.822c0.549,0.642,0.865,0.999,1.168,1.368
		c1.682,2.053,3.389,4.082,5.533,5.684c4.243,3.171,9.527,1.987,11.987-2.693c0.824-1.565,1.471-3.211,1.999-4.896
		c3.741-11.944,4.049-24.221,3.531-36.579c-0.031-0.765-0.408-1.039-1.079-1.106c-1.372-0.138-2.747-0.172-4.113,0.013
		c-2.138,0.289-2.568,0.799-2.447,3.002c0.273,5.026-0.25,10-0.995,14.953c-0.247,1.643-0.59,3.286-1.317,4.81
		c-0.944,1.978-2.147,2.151-3.547,0.449c-0.556-0.676-1.037-1.437-1.428-2.221c-1.6-3.208-2.951-6.515-3.967-9.96
		c-5.52-18.727-9.06-37.85-11.473-57.197c-0.151-1.21-0.674-1.689-1.861-1.785c-2.404-0.194-4.793-0.229-7.199,0.022
		c-3.513,0.367-4.437,1.394-4.234,4.937c0.022,0.392,0.06,0.784,0.111,1.173c0.449,3.405,0.912,6.808,1.355,10.213
		c1.692,12.996,3.856,25.913,6.993,38.64c2.675,10.853,4.313,21.742,2.483,32.916c-0.404,2.469-0.781,4.95-1.819,7.252
		c-0.901,2-1.913,2.11-3.364,0.428c-0.81-0.938-1.375-2.025-1.894-3.141c-1.242-2.669-2.313-5.403-3.274-8.188
		c-2.892-8.382-4.667-17.016-5.852-25.779c-0.205-1.512-0.832-2.102-2.338-2.177c-2.311-0.116-4.611-0.131-6.912,0.073
		c-3.361,0.3-4.51,1.666-4.081,5.046c0.795,6.279,2.094,12.475,3.155,18.71c1.151,6.766,2.682,13.487,2.754,20.395
		c0.078,7.526-0.24,15.03-2.371,22.313c-1.246,4.262-3.378,8.06-6.821,10.974c-3.201,2.71-6.5,2.529-9.426-0.438
		c-1.873-1.9-3.419-4.049-4.692-6.39c-5.876-10.801-7.606-22.36-6.284-34.474c0.124-1.14,0.467-2.211,1.192-3.122
		c1.016-1.277,2.152-1.288,3.158,0.003c1.012,1.297,1.62,2.797,1.998,4.386c0.885,3.721,1.767,7.442,2.608,11.173
		c0.149,0.664,0.269,0.896,1.037,0.645c4.021-1.315,6.394-4.105,7.246-8.157c0.803-3.811,0.262-7.563-1.276-11.089
		c-1.65-3.78-4.621-6.08-8.782-6.517c-5.267-0.553-9.334,1.832-12.589,5.696c-2.967,3.521-4.612,7.738-5.656,12.173
		c-2.522,10.715-1.52,21.221,1.894,31.604c2.775,8.443,2.874,16.966,0.282,25.482c-0.317,1.042-0.561,2.426-1.861,2.593
		c-1.352,0.173-2.005-1.088-2.611-2.072c-1.629-2.642-2.751-5.527-3.805-8.43c-3.28-9.03-5.274-18.37-6.55-27.872
		c-0.172-1.285-0.677-1.893-2.032-1.974c-2.458-0.148-4.906-0.18-7.354,0.065c-3.164,0.316-4.25,1.597-3.927,4.748
		c0.198,1.937,0.563,3.855,0.873,5.913c-1.114-0.431-2.093-0.855-3.101-1.191c-3.703-1.23-6.947-0.545-9.684,2.33
		c-1.605,1.688-2.889,3.586-3.963,5.641c-3.629,6.937-5.03,14.416-5.237,22.144c-0.259,9.663,1.864,18.891,5.411,27.832
		c2.302,5.802,5.281,11.194,9.724,15.641c4.406,4.408,10.531,4.152,14.684-0.475c1.227-1.368,2.136-2.926,2.87-4.599
		c2.489-5.663,2.514-11.636,2.199-17.646c-0.117-2.252-0.279-4.501-0.657-6.749c2.064,2.437,3.994,4.913,6.389,6.966
		c4.859,4.163,10.611,2.912,13.253-2.912c2.854-6.291,3.989-13.003,4.701-19.804c0.248-2.376,0.363-4.766,0.552-7.333
		c1.738,1.065,3.303,2.059,4.983,2.847c6.349,2.976,12.647,2.032,17.564-2.636c2.043-1.939,3.771-4.126,5.244-6.522
		c4.426-7.201,6.117-15.223,7.038-23.474C386.692,317.632,386.958,315.019,387.271,312.067z M265.661,385.045
		c-1.255-7.973-3.058-15.505-3.86-23.21c-0.446-4.291,0.401-8.104,2.972-11.787c6.099-8.736,12.229-17.44,18.809-25.821
		c5.123-6.525,10.269-13.033,15.394-19.558c0.439-0.561,1.102-1.141,0.628-1.951c-0.466-0.797-1.283-0.517-2.007-0.463
		c-8.228,0.611-15.097,4.085-21.123,9.633c-7.443,6.854-13.872,14.57-19.847,22.681c-10.884,14.776-19.691,30.825-28.503,46.866
		c-1.58,2.877-3.089,5.806-3.918,9.013c-0.802,3.1,0.184,4.57,3.32,5.041c0.386,0.058,0.782,0.077,1.173,0.069
		c3.204-0.06,5.361-1.956,7.235-4.247c5.291-6.466,10.043-13.321,14.631-20.296c0.275-0.42,0.466-1.188,1.069-1.057
		c0.532,0.115,0.334,0.842,0.396,1.307c1.221,9.189,2.468,18.376,4.195,27.486c0.253,1.337,0.061,2.367-0.701,3.426
		c-1.7,2.361-3.072,4.896-3.931,7.695c-0.468,1.524,0.023,2.702,1.238,3.619c0.875,0.659,1.881,1.059,2.96,1.241
		c1.257,0.213,2.522,0.376,3.779,0.587c1.178,0.197,1.854,0.821,2.147,2.069c1.81,7.708,5.327,14.615,10.021,20.95
		c1.056,1.425,2.234,2.737,3.679,3.792c3.096,2.261,8.331,2.368,11.216,0.22c1.268-0.943,1.36-1.502,0.254-2.594
		c-1.527-1.505-2.63-3.286-3.611-5.163c-3.027-5.791-5.363-11.88-7.745-17.95c-1.665-4.242-3.491-8.431-4.25-12.971
		c-0.402-2.413-0.144-4.562,1.521-6.61c4.023-4.951,7.857-10.056,11.771-15.097c1.866-2.405,3.695-4.838,5.311-7.42
		c0.996-1.591,0.851-2.077-0.76-3.061c-1.693-1.033-3.517-1.43-5.499-1.164c-3.244,0.434-5.903,2.068-8.336,4.102
		C271.695,377.425,268.694,380.985,265.661,385.045z M317.468,296.688c0.104-4.507-1.519-6.2-5.432-6.229
		c-2.226-0.017-4.374,0.482-6.526,0.989c-1.172,0.275-1.434,0.896-1.301,2.01c0.906,7.591,0.44,15.076-1.855,22.404
		c-0.194,0.62-0.301,1.245-0.238,1.887c0.102,1.059,0.672,1.701,1.745,1.873c2.006,0.321,4.923-1.08,5.888-2.898
		c1.24-2.339,2.467-4.687,3.635-7.063C315.493,305.369,317.183,300.941,317.468,296.688z M383.613,234.892
		c-0.004-3.498-0.73-6.048-2.064-8.003c-2.577-3.773-6.953-4.189-10.214-0.971c-4.436,4.378-4.501,13.242-0.135,18.234
		c2.625,3.001,6.11,3.003,8.752-0.014C382.455,241.279,383.567,237.902,383.613,234.892z"/>
	<path fill-rule="evenodd" clip-rule="evenodd" fill="#CA0288" d="M274.913,141.473c-6.124-2.771-12.321-1.199-18.391-0.19
		c-25.035,4.163-48.132,24.286-55.727,48.437c-5.175,16.453-3.919,32.527,3.281,48.167c0.265,0.574,0.531,1.148,0.841,1.818
		c-0.647,0.15-1.08-0.204-1.532-0.391c-11.598-4.792-23.194-9.588-34.787-14.394c-5.915-2.451-10.015-1.639-14.563,2.91
		c-6.737,6.738-13.477,13.474-20.213,20.213c-3.874,3.875-4.778,8.289-2.703,13.339c2.737,6.662,5.495,13.315,8.232,19.941
		c-0.277,0.378-0.588,0.202-0.836,0.129c-14.18-4.136-27.356-1.462-39.828,5.892c-5.53,3.261-10.494,7.262-14.908,11.913
		c-1.021,1.076-1.512,0.926-2.472-0.045c-9.114-9.223-18.282-18.391-27.435-27.575c-6.639-6.661-6.641-16.815,0.033-23.478
		c20.821-20.784,41.66-41.549,62.483-62.33c16.34-16.306,32.667-32.625,49.002-48.936c10.81-10.792,21.621-21.582,32.438-32.368
		c16.902-16.854,33.809-33.703,50.715-50.553c6.676-6.654,16.791-6.631,23.465,0.045c8.717,8.719,17.427,17.443,26.165,26.139
		c0.753,0.75,0.951,1.102-0.011,1.946c-13.525,11.866-21.472,26.693-23.401,44.641c-0.494,4.599-0.457,9.211,0.146,13.809
		C274.945,140.84,274.913,141.134,274.913,141.473z"/>
	<path fill-rule="evenodd" clip-rule="evenodd" fill="#2F488A" d="M340.201,191.042c-16.67-0.527-32.388-9.171-43.909-25.343
		c-8.264-11.601-11.571-24.661-10.048-38.85c2.615-24.351,22.504-45.124,46.586-49.104c25.312-4.184,49.406,9.35,60.586,31.327
		c10.944,21.515,7.571,45.864-8.518,63.588C374.214,184.43,359.334,191.042,340.201,191.042z M345.787,159.159
		c6.198-0.001,12.302-2.57,16.207-6.849c6.521-7.146,7.963-15.331,4.685-24.314c-3.913-10.722-14.844-18.914-25.429-19.276
		c-13.815-0.472-24.784,10.727-23.768,24.268C318.526,146.903,331.784,159.162,345.787,159.159z"/>
	<path fill-rule="evenodd" clip-rule="evenodd" fill="#2F488A" d="M209.187,209.504c0.222-16.29,6.661-29.799,18.375-40.942
		c7.938-7.552,17.074-12.957,27.824-15.446c4.027-0.932,8.113-1.408,12.237-1.632c1.008-0.055,1.503,0.095,1.636,1.311
		c1.025,9.364,2.124,18.72,3.256,28.072c0.154,1.278-0.691,0.936-1.264,0.963c-5.137,0.248-10.187,1.007-14.828,3.307
		c-7.432,3.681-13.093,8.978-14.874,17.489c-1.213,5.798-0.251,11.342,2.408,16.56c3.66,7.183,9.27,12.375,16.742,15.4
		c9.608,3.889,19.944,1.375,27.14-6.389c2.831-3.054,5.193-6.378,6.518-10.379c0.315-0.953,0.18-1.597-0.581-2.3
		c-1.657-1.532-3.267-3.126-4.79-4.792c-0.804-0.877-1.257-0.961-2.149-0.044c-3.972,4.084-8.052,8.063-12.045,12.126
		c-0.707,0.719-1.09,0.788-1.834,0.035c-5.455-5.519-10.947-11.002-16.461-16.463c-0.634-0.628-0.666-0.939-0.012-1.59
		c11.379-11.334,22.737-22.69,34.069-34.072c0.719-0.721,1.072-0.601,1.718,0.047c11.374,11.409,22.764,22.803,34.183,34.167
		c0.706,0.703,0.733,1.413,0.661,2.256c-1.335,15.512-7.038,29.156-17.513,40.726c-7.91,8.738-17.343,15.188-28.837,18.175
		c-17.18,4.465-32.908,0.973-47.007-9.565c-12.131-9.067-20.231-20.936-23.458-35.895
		C209.513,216.973,209.108,213.269,209.187,209.504z"/>
	<path fill-rule="evenodd" clip-rule="evenodd" fill="#2F488A" d="M187.272,367.266c-4.218-10.206-8.4-20.336-12.59-30.463
		c-10.899-26.339-21.797-52.677-32.719-79.006c-0.356-0.857-0.411-1.393,0.341-2.136c6.637-6.559,13.222-13.17,19.805-19.783
		c0.604-0.607,1.067-0.865,1.999-0.479c36.058,14.96,72.131,29.882,108.2,44.81c1.503,0.622,1.502,0.634,0.358,1.777
		c-7.604,7.606-15.224,15.197-22.796,22.836c-0.782,0.789-1.382,0.929-2.398,0.48c-5.335-2.352-10.713-4.606-16.052-6.948
		c-0.931-0.408-1.517-0.38-2.283,0.394c-8.093,8.159-16.222,16.282-24.373,24.384c-0.729,0.724-0.906,1.275-0.462,2.265
		c2.428,5.404,4.762,10.852,7.148,16.275c0.293,0.665,0.439,1.133-0.204,1.771c-7.808,7.75-15.575,15.54-23.356,23.316
		C187.723,366.928,187.521,367.063,187.272,367.266z M203.984,285.755c-7.278-3.235-14.347-6.377-21.737-9.663
		c0.748,1.707,1.335,3.044,1.923,4.383c2.379,5.425,4.748,10.855,7.161,16.266c0.148,0.332,0.125,1.526,1.061,0.596
		C196.214,293.532,200.023,289.715,203.984,285.755z"/>
	<path fill-rule="evenodd" clip-rule="evenodd" fill="#2F488A" d="M164.028,330.967c-0.221,7.807-2.825,14.847-6.884,21.428
		c-3.192,5.177-7.214,9.657-11.522,13.906c-1.958,1.931-3.856,3.924-5.854,5.813c-0.753,0.711-0.73,1.102-0.003,1.823
		c6.486,6.43,12.911,12.923,19.416,19.334c0.936,0.922,0.898,1.359-0.01,2.258c-7.124,7.042-14.204,14.13-21.253,21.247
		c-0.78,0.789-1.143,0.748-1.905-0.017c-25.257-25.3-50.535-50.576-75.837-75.831c-0.802-0.8-0.834-1.198-0.015-2.014
		c11.106-11.047,22.109-22.198,33.274-33.186c6.853-6.743,14.763-11.847,24.311-13.921c11.721-2.545,22.056,0.536,31.102,8.157
		c6.95,5.855,12.063,12.975,14.259,21.951C163.835,324.889,164.122,327.906,164.028,330.967z M102.696,337.135
		c0.451,0.337,0.845,0.563,1.156,0.872c5.073,5.055,10.148,10.108,15.186,15.198c0.653,0.66,0.942,0.29,1.386-0.155
		c2.661-2.68,5.345-5.338,8.003-8.021c1.038-1.047,1.925-2.225,2.685-3.489c4.542-7.569,0.521-16.592-8.092-18.056
		c-3.485-0.593-6.474,0.806-9.121,2.873C109.867,329.504,106.607,333.466,102.696,337.135z"/>
	<path fill-rule="evenodd" clip-rule="evenodd" fill="#FEFCFD" d="M387.271,312.067c-0.313,2.951-0.579,5.564-0.87,8.175
		c-0.921,8.251-2.612,16.272-7.038,23.474c-1.473,2.396-3.201,4.583-5.244,6.522c-4.917,4.668-11.216,5.611-17.564,2.636
		c-1.681-0.788-3.245-1.781-4.983-2.847c-0.188,2.567-0.304,4.957-0.552,7.333c-0.712,6.801-1.847,13.513-4.701,19.804
		c-2.642,5.824-8.394,7.075-13.253,2.912c-2.395-2.053-4.324-4.529-6.389-6.966c0.378,2.248,0.54,4.497,0.657,6.749
		c0.314,6.01,0.29,11.982-2.199,17.646c-0.734,1.673-1.644,3.23-2.87,4.599c-4.152,4.627-10.277,4.883-14.684,0.475
		c-4.442-4.446-7.422-9.839-9.724-15.641c-3.547-8.941-5.67-18.169-5.411-27.832c0.207-7.728,1.608-15.207,5.237-22.144
		c1.074-2.055,2.357-3.953,3.963-5.641c2.736-2.875,5.98-3.561,9.684-2.33c1.008,0.336,1.986,0.761,3.101,1.191
		c-0.31-2.058-0.675-3.977-0.873-5.913c-0.323-3.151,0.763-4.432,3.927-4.748c2.447-0.245,4.896-0.214,7.354-0.065
		c1.355,0.081,1.86,0.688,2.032,1.974c1.275,9.502,3.27,18.842,6.55,27.872c1.054,2.902,2.176,5.788,3.805,8.43
		c0.606,0.984,1.26,2.245,2.611,2.072c1.301-0.167,1.544-1.551,1.861-2.593c2.592-8.517,2.493-17.039-0.282-25.482
		c-3.413-10.383-4.416-20.889-1.894-31.604c1.044-4.435,2.689-8.652,5.656-12.173c3.255-3.864,7.322-6.249,12.589-5.696
		c4.161,0.437,7.132,2.736,8.782,6.517c1.538,3.525,2.079,7.278,1.276,11.089c-0.853,4.052-3.226,6.842-7.246,8.157
		c-0.769,0.252-0.888,0.02-1.037-0.645c-0.842-3.73-1.724-7.452-2.608-11.173c-0.378-1.589-0.986-3.089-1.998-4.386
		c-1.006-1.291-2.143-1.28-3.158-0.003c-0.726,0.911-1.068,1.982-1.192,3.122c-1.322,12.113,0.408,23.673,6.284,34.474
		c1.273,2.341,2.819,4.489,4.692,6.39c2.926,2.968,6.225,3.148,9.426,0.438c3.443-2.914,5.575-6.712,6.821-10.974
		c2.131-7.282,2.449-14.786,2.371-22.313c-0.072-6.907-1.603-13.629-2.754-20.395c-1.062-6.235-2.36-12.431-3.155-18.71
		c-0.429-3.38,0.72-4.746,4.081-5.046c2.301-0.205,4.602-0.189,6.912-0.073c1.506,0.076,2.133,0.665,2.338,2.177
		c1.185,8.763,2.96,17.397,5.852,25.779c0.961,2.785,2.032,5.52,3.274,8.188c0.519,1.115,1.084,2.203,1.894,3.141
		c1.451,1.683,2.463,1.572,3.364-0.428c1.038-2.302,1.415-4.783,1.819-7.252c1.829-11.174,0.191-22.063-2.483-32.916
		c-3.137-12.727-5.301-25.644-6.993-38.64c-0.443-3.405-0.906-6.808-1.355-10.213c-0.052-0.389-0.089-0.781-0.111-1.173
		c-0.202-3.543,0.722-4.57,4.234-4.937c2.406-0.251,4.795-0.217,7.199-0.022c1.188,0.096,1.71,0.574,1.861,1.785
		c2.413,19.348,5.953,38.471,11.473,57.197c1.016,3.445,2.367,6.752,3.967,9.96c0.391,0.784,0.872,1.545,1.428,2.221
		c1.399,1.702,2.603,1.529,3.547-0.449c0.728-1.524,1.07-3.167,1.317-4.81c0.745-4.954,1.269-9.927,0.995-14.953
		c-0.121-2.203,0.31-2.713,2.447-3.002c1.366-0.185,2.741-0.151,4.113-0.013c0.671,0.067,1.048,0.342,1.079,1.106
		c0.518,12.358,0.21,24.635-3.531,36.579c-0.528,1.686-1.175,3.331-1.999,4.896c-2.46,4.681-7.744,5.864-11.987,2.693
		c-2.145-1.602-3.852-3.631-5.533-5.684c-0.303-0.369-0.619-0.727-1.168-1.368c-0.199,2.819-0.315,5.328-0.565,7.822
		c-0.686,6.855-1.856,13.604-4.669,19.968c-1.079,2.441-2.643,4.395-5.315,5.132c-2.883,0.794-5.443-0.041-7.684-1.892
		c-2.167-1.79-3.983-3.923-5.696-6.145C388.082,313.1,387.785,312.725,387.271,312.067z M320.035,373.072
		c-0.423-11.252-2.198-22.348-3.958-33.442c-0.36-2.271-2.158-3.622-4.729-3.884c-1.852-0.188-3.254,0.822-4.17,3.044
		c-1.082,2.625-1.427,5.386-1.488,8.201c-0.266,12.13,2.5,23.637,7.145,34.755c0.646,1.547,1.516,2.981,2.708,4.176
		c1.599,1.601,2.674,1.359,3.44-0.745c0.217-0.596,0.38-1.216,0.514-1.837C320.229,379.949,320.127,376.511,320.035,373.072z"/>
	<path fill-rule="evenodd" clip-rule="evenodd" fill="#FEFDFE" d="M265.661,385.045c3.033-4.06,6.034-7.62,9.627-10.622
		c2.433-2.033,5.092-3.668,8.336-4.102c1.982-0.266,3.806,0.131,5.499,1.164c1.61,0.983,1.756,1.47,0.76,3.061
		c-1.615,2.582-3.444,5.015-5.311,7.42c-3.914,5.041-7.748,10.146-11.771,15.097c-1.664,2.049-1.923,4.197-1.521,6.61
		c0.759,4.54,2.585,8.729,4.25,12.971c2.382,6.07,4.718,12.159,7.745,17.95c0.981,1.877,2.084,3.658,3.611,5.163
		c1.106,1.092,1.014,1.65-0.254,2.594c-2.885,2.148-8.12,2.041-11.216-0.22c-1.444-1.055-2.623-2.367-3.679-3.792
		c-4.693-6.335-8.211-13.242-10.021-20.95c-0.293-1.248-0.97-1.872-2.147-2.069c-1.257-0.211-2.522-0.374-3.779-0.587
		c-1.079-0.183-2.085-0.582-2.96-1.241c-1.215-0.917-1.706-2.095-1.238-3.619c0.858-2.799,2.23-5.334,3.931-7.695
		c0.762-1.059,0.954-2.089,0.701-3.426c-1.728-9.11-2.975-18.297-4.195-27.486c-0.062-0.465,0.137-1.191-0.396-1.307
		c-0.604-0.131-0.794,0.637-1.069,1.057c-4.588,6.975-9.34,13.83-14.631,20.296c-1.874,2.291-4.031,4.188-7.235,4.247
		c-0.391,0.008-0.787-0.012-1.173-0.069c-3.137-0.471-4.122-1.941-3.32-5.041c0.829-3.207,2.338-6.136,3.918-9.013
		c8.812-16.041,17.619-32.09,28.503-46.866c5.975-8.11,12.403-15.827,19.847-22.681c6.026-5.548,12.896-9.021,21.123-9.633
		c0.724-0.054,1.541-0.334,2.007,0.463c0.474,0.811-0.188,1.391-0.628,1.951c-5.125,6.524-10.271,13.032-15.394,19.558
		c-6.58,8.381-12.71,17.085-18.809,25.821c-2.57,3.683-3.418,7.496-2.972,11.787C262.604,369.54,264.406,377.072,265.661,385.045z"
		/>
	<path fill-rule="evenodd" clip-rule="evenodd" fill="#FEFBFC" d="M317.468,296.688c-0.285,4.254-1.975,8.682-4.085,12.974
		c-1.168,2.376-2.395,4.724-3.635,7.063c-0.965,1.818-3.882,3.22-5.888,2.898c-1.073-0.172-1.644-0.814-1.745-1.873
		c-0.063-0.642,0.044-1.267,0.238-1.887c2.296-7.328,2.762-14.813,1.855-22.404c-0.133-1.113,0.129-1.734,1.301-2.01
		c2.152-0.507,4.301-1.006,6.526-0.989C315.949,290.487,317.571,292.181,317.468,296.688z"/>
	<path fill-rule="evenodd" clip-rule="evenodd" fill="#FEFBFC" d="M383.613,234.892c-0.046,3.01-1.158,6.387-3.661,9.246
		c-2.642,3.017-6.127,3.016-8.752,0.014c-4.366-4.992-4.301-13.856,0.135-18.234c3.261-3.218,7.637-2.802,10.214,0.971
		C382.883,228.844,383.609,231.394,383.613,234.892z"/>
	<path fill-rule="evenodd" clip-rule="evenodd" fill="#FEFEFE" d="M345.787,159.159c-14.003,0.003-27.261-12.256-28.305-26.172
		c-1.017-13.541,9.952-24.739,23.768-24.268c10.585,0.362,21.516,8.554,25.429,19.276c3.278,8.984,1.837,17.168-4.685,24.314
		C358.089,156.589,351.985,159.158,345.787,159.159z"/>
	<path fill-rule="evenodd" clip-rule="evenodd" fill="#FBFBFC" d="M203.984,285.755c-3.961,3.96-7.771,7.777-11.593,11.582
		c-0.936,0.931-0.912-0.264-1.061-0.596c-2.413-5.411-4.782-10.841-7.161-16.266c-0.588-1.338-1.175-2.676-1.923-4.383
		C189.638,279.377,196.706,282.52,203.984,285.755z"/>
	<path fill-rule="evenodd" clip-rule="evenodd" fill="#FCFCFD" d="M102.696,337.135c3.911-3.669,7.171-7.631,11.202-10.778
		c2.647-2.067,5.636-3.466,9.121-2.873c8.613,1.464,12.634,10.486,8.092,18.056c-0.76,1.265-1.646,2.442-2.685,3.489
		c-2.658,2.684-5.342,5.342-8.003,8.021c-0.443,0.445-0.732,0.815-1.386,0.155c-5.037-5.09-10.112-10.144-15.186-15.198
		C103.541,337.697,103.147,337.472,102.696,337.135z"/>
	<path fill-rule="evenodd" clip-rule="evenodd" fill="#CA1089" d="M320.035,373.072c0.092,3.438,0.193,6.877-0.539,10.268
		c-0.134,0.621-0.297,1.241-0.514,1.837c-0.767,2.104-1.842,2.346-3.44,0.745c-1.192-1.194-2.062-2.629-2.708-4.176
		c-4.645-11.118-7.41-22.625-7.145-34.755c0.062-2.815,0.406-5.576,1.488-8.201c0.916-2.222,2.318-3.232,4.17-3.044
		c2.571,0.262,4.369,1.613,4.729,3.884C317.837,350.725,319.612,361.82,320.035,373.072z"/>
</g>
</svg>
